<svg width="20" height="20" viewBox="0 0 20 20" fill="none" xmlns="http://www.w3.org/2000/svg">
<g clip-path="url(#clip0_1_144)">
<path d="M18.3333 9.20918V8.33336C18.3333 6.10504 17.4675 4.01086 15.895 2.43918C14.3225 0.86582 12.2292 0 10 0C5.405 0 1.66668 3.73832 1.66668 8.33332V9.20914C0.71668 9.4025 0 10.2442 0 11.25V14.5833C0 15.7325 0.935 16.6666 2.08332 16.6666H3.75C3.98 16.6666 4.16668 16.48 4.16668 16.25V9.58332C4.16668 9.35332 3.98 9.16664 3.75 9.16664H2.5V8.33332C2.5 4.1975 5.865 0.83332 10 0.83332C12.0067 0.83332 13.89 1.61332 15.3058 3.02832C16.7216 4.44332 17.5 6.3275 17.5 8.33332V9.16664H16.25C16.02 9.16664 15.8333 9.35332 15.8333 9.58332V16.25C15.8333 16.48 16.02 16.6667 16.25 16.6667H17.4575C17.2642 17.6167 16.4225 18.3334 15.4167 18.3334H12.5V17.9167C12.5 17.6867 12.3133 17.5 12.0833 17.5H8.75C8.06082 17.5 7.5 18.0608 7.5 18.75C7.5 19.4392 8.06082 20 8.75 20H12.0833C12.3133 20 12.5 19.8133 12.5 19.5833V19.1666H15.4167C16.895 19.1666 18.1075 18.0566 18.295 16.6283C19.2633 16.4492 20 15.6025 20 14.5833V11.25C20 10.2433 19.2833 9.4025 18.3333 9.20918ZM3.33332 10V15.8333H2.08332C1.39414 15.8333 0.83332 15.2725 0.83332 14.5833V11.25C0.83332 10.5608 1.39414 10 2.08332 10H3.33332ZM11.6667 19.1667H8.75C8.52 19.1667 8.33332 18.9792 8.33332 18.75C8.33332 18.5208 8.52 18.3333 8.75 18.3333H11.6667V19.1667ZM19.1667 14.5833C19.1667 15.2725 18.6059 15.8333 17.9167 15.8333H16.6667V10H17.9167C18.6059 10 19.1667 10.5608 19.1667 11.25V14.5833Z" fill="white"/>
</g>
<defs>
<clipPath id="clip0_1_144">
<rect width="20" height="20" fill="white"/>
</clipPath>
</defs>
</svg>
