<svg width="20" height="20" viewBox="0 0 20 20" fill="none" xmlns="http://www.w3.org/2000/svg">
<g clip-path="url(#clip0_1_123)">
<path d="M2.49999 19.995C1.85916 19.995 1.21916 19.7533 0.731659 19.2708C-0.236674 18.2925 -0.236674 16.7075 0.729159 15.7325L8.67166 7.79833C8.44666 7.17833 8.33333 6.51833 8.33333 5.83333C8.33333 2.6175 10.95 0 14.1667 0C14.945 0 15.6925 0.148333 16.3867 0.440833C16.5142 0.494167 16.6067 0.608333 16.6333 0.745C16.66 0.880833 16.6167 1.02167 16.5192 1.11917L13.9783 3.66083L14.4517 5.54833L16.3383 6.02167L18.88 3.48C18.9775 3.38167 19.1167 3.33667 19.255 3.36583C19.3908 3.39167 19.505 3.485 19.5592 3.6125C19.8517 4.3075 20 5.05417 20 5.83333C20 9.04917 17.3833 11.6667 14.1667 11.6667C13.4808 11.6667 12.8217 11.5525 12.2025 11.3292L4.26999 19.2692C3.78166 19.7525 3.13999 19.995 2.49999 19.995ZM14.1667 0.833333C11.4092 0.833333 9.16666 3.07583 9.16666 5.83333C9.16666 6.50583 9.29333 7.14583 9.54249 7.73833C9.60833 7.895 9.57249 8.075 9.45333 8.195L1.31999 16.32C0.676659 16.97 0.676659 18.03 1.32166 18.6817C1.97083 19.3242 3.03166 19.3233 3.68249 18.6783L11.8067 10.5467C11.9267 10.4267 12.1058 10.3908 12.2633 10.4575C12.8533 10.7075 13.4942 10.8333 14.1667 10.8333C16.9242 10.8333 19.1667 8.59083 19.1667 5.83333C19.1667 5.38833 19.11 4.955 18.9983 4.54083L16.7608 6.77833C16.6575 6.8825 16.5067 6.92417 16.365 6.88833L14.0067 6.29667C13.8575 6.25917 13.7417 6.1425 13.7042 5.99417L13.1125 3.63583C13.0767 3.49333 13.1183 3.3425 13.2217 3.23917L15.4592 1.00167C15.045 0.889167 14.6125 0.833333 14.1667 0.833333Z" fill="#FF4D4D"/>
</g>
<defs>
<clipPath id="clip0_1_123">
<rect width="20" height="20" fill="white"/>
</clipPath>
</defs>
</svg>
